<svg width="130" height="130" viewBox="0 0 130 130" fill="none" xmlns="http://www.w3.org/2000/svg">
<rect width="130" height="130" fill="#E87549"/>
<path d="M22 113L33.698 34.2097C35.0808 24.8961 43.0762 18 52.492 18H77.6975C84.8984 18 90.9096 19.2834 95.7311 21.8501C100.553 24.3859 103.981 28.035 106.016 32.7974C108.051 37.5288 108.521 43.1416 107.425 49.6357C106.36 56.1917 103.981 61.7736 100.286 66.3813C96.6233 70.9582 91.8958 74.4526 86.1038 76.8647C80.343 79.2769 73.7996 80.4829 66.4734 80.4829H41.3485L44.4481 62.3921H65.2524C68.7276 62.3921 71.7332 61.9437 74.2692 61.0469C76.8052 60.1191 78.8246 58.7275 80.3274 56.8721C81.8615 54.9857 82.879 52.5736 83.3799 49.6357C83.8496 46.6979 83.6304 44.2703 82.7225 42.353C81.8458 40.4048 80.2961 38.9513 78.0732 37.9927C75.8816 37.0031 73.0638 36.5083 69.6199 36.5083H58.1611L45.2464 113H22ZM86.1038 76.8647L100.099 113H86.1038H74.7388L62 80.4829L86.1038 76.8647Z" fill="white"/>
</svg>
