<svg width="247" height="38" viewBox="0 0 247 38" fill="none" xmlns="http://www.w3.org/2000/svg">
<path d="M0.919833 37L6.95676 0.636363H21.9781C24.7006 0.636363 26.9733 1.1276 28.7963 2.11008C30.6192 3.08073 31.9153 4.47751 32.6847 6.30043C33.4542 8.1115 33.6317 10.2599 33.2174 12.7457C32.815 15.2552 31.9153 17.3918 30.5186 19.1555C29.1336 20.9074 27.3462 22.245 25.1563 23.1683C22.9783 24.0916 20.5044 24.5533 17.7345 24.5533H8.23517L9.40705 17.6286H17.2728C18.5867 17.6286 19.7231 17.4569 20.6819 17.1136C21.6407 16.7585 22.4042 16.2259 22.9724 15.5156C23.5524 14.7936 23.9371 13.8703 24.1265 12.7457C24.3041 11.6212 24.2212 10.692 23.8779 9.9581C23.5465 9.21236 22.9606 8.65601 22.1201 8.28906C21.2915 7.91027 20.2262 7.72088 18.9241 7.72088H14.5917L9.7089 37H0.919833ZM24.1443 20.3807L30.4475 37H20.8595L14.7515 20.3807H24.1443ZM46.5564 37.5149C43.7036 37.5149 41.3362 36.9527 39.4541 35.8281C37.5838 34.6918 36.2699 33.076 35.5123 30.9808C34.7548 28.8738 34.6186 26.3703 35.104 23.4702C35.5774 20.6529 36.5422 18.1908 37.9981 16.0838C39.4659 13.965 41.3125 12.3196 43.5379 11.1477C45.7633 9.96401 48.2432 9.37216 50.9775 9.37216C52.9188 9.37216 54.6411 9.67401 56.1444 10.2777C57.6478 10.8814 58.8907 11.781 59.8731 12.9766C60.8556 14.1603 61.5244 15.6162 61.8795 17.3445C62.2346 19.0727 62.2228 21.0554 61.844 23.2926L61.5067 25.4588H37.8206L38.6196 20.4162H54.2446C54.3866 19.4929 54.3097 18.6702 54.0138 17.9482C53.7178 17.2261 53.2384 16.6638 52.5756 16.2614C51.9245 15.8471 51.1255 15.6399 50.1785 15.6399C49.2197 15.6399 48.3201 15.8648 47.4797 16.3146C46.6511 16.7526 45.9468 17.3445 45.3667 18.0902C44.7867 18.8359 44.4079 19.6764 44.2304 20.6115L43.2893 25.7784C43.0999 26.9266 43.1532 27.9091 43.4491 28.7259C43.7451 29.5426 44.2541 30.17 44.9761 30.608C45.6982 31.0341 46.6274 31.2472 47.7638 31.2472C48.5213 31.2472 49.2316 31.1465 49.8944 30.9453C50.5573 30.7322 51.1492 30.4186 51.67 30.0043C52.2027 29.5781 52.6347 29.0632 52.9662 28.4595L60.8852 28.6903C60.246 30.4777 59.2576 32.0343 57.92 33.3601C56.5824 34.674 54.9489 35.6979 53.0194 36.4318C51.1018 37.1539 48.9475 37.5149 46.5564 37.5149ZM71.623 37.4616C69.8947 37.4616 68.4033 37.1716 67.1485 36.5916C65.9056 35.9998 64.9942 35.1061 64.4142 33.9105C63.846 32.715 63.7098 31.2235 64.0058 29.4361C64.2662 27.9209 64.7456 26.6484 65.444 25.6186C66.1542 24.5769 67.0242 23.7306 68.0541 23.0795C69.0957 22.4285 70.2558 21.9313 71.5342 21.5881C72.8126 21.2448 74.1502 21.014 75.547 20.8956C77.1095 20.7536 78.376 20.5997 79.3467 20.4339C80.3292 20.2682 81.0631 20.0374 81.5484 19.7415C82.0337 19.4337 82.3296 19.0076 82.4362 18.4631V18.3743C82.5782 17.4628 82.3829 16.7585 81.8502 16.2614C81.3176 15.7642 80.5186 15.5156 79.4532 15.5156C78.3169 15.5156 77.3462 15.7642 76.5413 16.2614C75.7364 16.7585 75.1741 17.4451 74.8545 18.321L66.8999 18.0369C67.3971 16.3797 68.2494 14.9001 69.4568 13.598C70.6642 12.2841 72.1971 11.2543 74.0555 10.5085C75.9258 9.75095 78.086 9.37216 80.5363 9.37216C82.2645 9.37216 83.827 9.57931 85.2238 9.99361C86.6206 10.3961 87.7984 10.9879 88.7572 11.7692C89.7278 12.5386 90.4203 13.4856 90.8346 14.6101C91.2489 15.7346 91.3377 17.0189 91.1009 18.4631L87.9937 37H79.8261L80.4653 33.2003H80.2522C79.613 34.1236 78.8614 34.9048 77.9972 35.544C77.145 36.1832 76.1862 36.6626 75.1208 36.9822C74.0555 37.3018 72.8895 37.4616 71.623 37.4616ZM75.2806 31.7798C76.1921 31.7798 77.0562 31.5904 77.873 31.2116C78.6897 30.8329 79.3763 30.312 79.9326 29.6491C80.5008 28.9744 80.8618 28.1932 81.0157 27.3054L81.4241 24.7131C81.1755 24.8433 80.8618 24.9616 80.483 25.0682C80.1043 25.1747 79.7018 25.2753 79.2757 25.37C78.8495 25.4529 78.4115 25.5357 77.9617 25.6186C77.5238 25.6896 77.1035 25.7547 76.7011 25.8139C75.8488 25.9441 75.109 26.1454 74.4816 26.4176C73.8543 26.6899 73.3512 27.045 72.9724 27.483C72.6054 27.9091 72.3805 28.4181 72.2977 29.0099C72.1556 29.8977 72.3628 30.5843 72.9191 31.0696C73.4755 31.5431 74.2626 31.7798 75.2806 31.7798ZM103.228 37.3906C101.216 37.3906 99.4698 36.8698 97.9901 35.8281C96.5105 34.7865 95.4511 33.224 94.8119 31.1406C94.1845 29.0573 94.1253 26.4709 94.6343 23.3814C95.167 20.1735 96.114 17.5339 97.4752 15.4624C98.8365 13.3909 100.423 11.858 102.234 10.8636C104.057 9.86932 105.915 9.37216 107.809 9.37216C109.241 9.37216 110.425 9.62074 111.36 10.1179C112.307 10.6032 113.047 11.2306 113.58 12C114.112 12.7694 114.479 13.5684 114.68 14.397H114.876L117.166 0.636363H125.849L119.812 37H111.218L111.946 32.5788H111.68C111.171 33.4193 110.52 34.2064 109.727 34.9403C108.934 35.6742 107.993 36.2661 106.903 36.7159C105.826 37.1657 104.601 37.3906 103.228 37.3906ZM107.33 30.6257C108.383 30.6257 109.336 30.3298 110.188 29.7379C111.041 29.1342 111.757 28.2879 112.337 27.1989C112.929 26.1098 113.343 24.8314 113.58 23.3636C113.828 21.8722 113.84 20.5878 113.615 19.5107C113.39 18.4335 112.946 17.6049 112.283 17.0249C111.632 16.4448 110.774 16.1548 109.709 16.1548C108.644 16.1548 107.691 16.4508 106.85 17.0426C106.01 17.6345 105.311 18.469 104.755 19.5462C104.199 20.6233 103.796 21.8958 103.548 23.3636C103.311 24.8314 103.287 26.1098 103.477 27.1989C103.678 28.2879 104.098 29.1342 104.737 29.7379C105.388 30.3298 106.252 30.6257 107.33 30.6257ZM138.011 37.5149C135.159 37.5149 132.791 36.9527 130.909 35.8281C129.039 34.6918 127.725 33.076 126.967 30.9808C126.21 28.8738 126.074 26.3703 126.559 23.4702C127.033 20.6529 127.997 18.1908 129.453 16.0838C130.921 13.965 132.768 12.3196 134.993 11.1477C137.218 9.96401 139.698 9.37216 142.433 9.37216C144.374 9.37216 146.096 9.67401 147.6 10.2777C149.103 10.8814 150.346 11.781 151.328 12.9766C152.311 14.1603 152.979 15.6162 153.335 17.3445C153.69 19.0727 153.678 21.0554 153.299 23.2926L152.962 25.4588H129.276L130.075 20.4162H145.7C145.842 19.4929 145.765 18.6702 145.469 17.9482C145.173 17.2261 144.694 16.6638 144.031 16.2614C143.38 15.8471 142.581 15.6399 141.634 15.6399C140.675 15.6399 139.775 15.8648 138.935 16.3146C138.106 16.7526 137.402 17.3445 136.822 18.0902C136.242 18.8359 135.863 19.6764 135.685 20.6115L134.744 25.7784C134.555 26.9266 134.608 27.9091 134.904 28.7259C135.2 29.5426 135.709 30.17 136.431 30.608C137.153 31.0341 138.082 31.2472 139.219 31.2472C139.976 31.2472 140.687 31.1465 141.35 30.9453C142.012 30.7322 142.604 30.4186 143.125 30.0043C143.658 29.5781 144.09 29.0632 144.421 28.4595L152.34 28.6903C151.701 30.4777 150.713 32.0343 149.375 33.3601C148.037 34.674 146.404 35.6979 144.475 36.4318C142.557 37.1539 140.403 37.5149 138.011 37.5149ZM168.121 37.5149C165.244 37.5149 162.871 36.9231 161.001 35.7393C159.142 34.5556 157.84 32.9103 157.094 30.8033C156.349 28.6844 156.213 26.2341 156.686 23.4524C157.136 20.6589 158.089 18.2086 159.545 16.1016C161.001 13.9827 162.859 12.3314 165.12 11.1477C167.381 9.96401 169.938 9.37216 172.79 9.37216C175.312 9.37216 177.431 9.82789 179.147 10.7393C180.875 11.6508 182.124 12.9411 182.893 14.6101C183.675 16.2673 183.905 18.2145 183.586 20.4517H175.472C175.543 19.0668 175.258 17.9777 174.619 17.1847C173.98 16.3797 173.051 15.9773 171.832 15.9773C170.802 15.9773 169.855 16.2614 168.991 16.8295C168.138 17.3859 167.41 18.2145 166.807 19.3153C166.215 20.4044 165.789 21.7538 165.528 23.3636C165.268 24.9735 165.25 26.3348 165.475 27.4474C165.712 28.5483 166.156 29.3828 166.807 29.951C167.47 30.5073 168.31 30.7855 169.328 30.7855C170.133 30.7855 170.879 30.6139 171.565 30.2706C172.252 29.9273 172.85 29.4242 173.359 28.7614C173.868 28.0866 174.264 27.2699 174.548 26.3111H182.645C182.183 28.572 181.289 30.5429 179.964 32.2237C178.65 33.8928 176.987 35.1948 174.974 36.13C172.962 37.0533 170.677 37.5149 168.121 37.5149ZM196.623 21.446L194.031 37H185.348L191.385 0.636363H199.783L197.475 14.7344H197.777C198.653 13.0535 199.872 11.7396 201.435 10.7926C202.997 9.84564 204.808 9.37216 206.868 9.37216C208.762 9.37216 210.348 9.7983 211.627 10.6506C212.905 11.491 213.81 12.6806 214.343 14.2195C214.876 15.7583 214.97 17.5575 214.627 19.6172L211.715 37H203.033L205.661 21.3217C205.897 19.8066 205.702 18.6229 205.075 17.7706C204.447 16.9183 203.441 16.4922 202.056 16.4922C201.145 16.4922 200.304 16.6934 199.535 17.0959C198.777 17.4865 198.144 18.0488 197.635 18.7827C197.126 19.5166 196.789 20.4044 196.623 21.446ZM229.795 37.5149C226.919 37.5149 224.545 36.9231 222.675 35.7393C220.817 34.5556 219.509 32.9044 218.751 30.7855C217.993 28.6667 217.845 26.2045 218.307 23.3991C218.769 20.6056 219.722 18.1553 221.166 16.0483C222.61 13.9413 224.456 12.3018 226.706 11.13C228.955 9.9581 231.505 9.37216 234.358 9.37216C237.223 9.37216 239.584 9.96401 241.443 11.1477C243.313 12.3314 244.627 13.9827 245.385 16.1016C246.154 18.2204 246.308 20.6884 245.846 23.5057C245.385 26.2992 244.426 28.7495 242.97 30.8565C241.514 32.9517 239.667 34.5852 237.43 35.7571C235.193 36.929 232.648 37.5149 229.795 37.5149ZM230.772 30.9631C231.837 30.9631 232.79 30.6435 233.63 30.0043C234.483 29.3651 235.199 28.4714 235.779 27.3232C236.359 26.175 236.773 24.8433 237.022 23.3281C237.27 21.8366 237.294 20.5286 237.093 19.4041C236.903 18.2678 236.501 17.3859 235.885 16.7585C235.27 16.1193 234.435 15.7997 233.382 15.7997C232.316 15.7997 231.358 16.1252 230.505 16.7763C229.653 17.4155 228.937 18.3092 228.357 19.4574C227.789 20.5937 227.38 21.9254 227.132 23.4524C226.883 24.9439 226.853 26.2519 227.043 27.3764C227.232 28.5009 227.641 29.3828 228.268 30.022C228.895 30.6494 229.73 30.9631 230.772 30.9631Z" fill="white"/>
</svg>
